# xmcd
#
# Track frame offsets:
#	150
#	20565
#	33119
#	48279
#	64521
#	82130
#	99508
#	117347
#	136455
#	148783
#	163125
#	179903
#	198109
#
# Disc length: 2909 seconds
#
# Revision: 3
# Processed by: cddbd v1.5.2PL0 Copyright (c) Steve Scherf et al.
# Submitted via: audiograbber 1.83.01
#
DISCID=b80b5b0d
DTITLE=Various Artist - Cool Country Songs-Disc2
DYEAR=2006
DGENRE=Country
TTITLE0=Steve Earle - Copperhead Road
TTITLE1=Trisha Yearwood - Wrong Side Of Memphis
TTITLE2=Montgomery Gentry - If You Ever Stop Loving Me
TTITLE3=Jake Nickolai - 3 Days Drivin
TTITLE4=Luke O`Shea and Medicine Wheel - No Day Like Today
TTITLE5=Joe Nichols - Brokenheartsville
TTITLE6=Beccy Cole - Rainbows, Dreams and Butterflies
TTITLE7=Brad Paisley - Easy Money
TTITLE8=Tania Kernaghan - Nine Mile Run
TTITLE9=Alex Watt - Window Down
TTITLE10=Darren Coggan - Back In My Hometown
TTITLE11=Jonah`s Road - Back To The Road
TTITLE12=Shooter Jennings featuring George Jones - 4TH Of July
EXTD=
EXTT0=
EXTT1=
EXTT2=
EXTT3=
EXTT4=
EXTT5=
EXTT6=
EXTT7=
EXTT8=
EXTT9=
EXTT10=
EXTT11=
EXTT12=
PLAYORDER=
